<svg width="115" height="56" viewBox="0 0 115 56" fill="none" xmlns="http://www.w3.org/2000/svg">
<path fill-rule="evenodd" clip-rule="evenodd" d="M56.7736 0.100314C56.5395 0.244513 56.1686 0.293919 55.9488 0.209622C55.729 0.125326 55.3685 0.169171 55.1478 0.307195C54.9271 0.445218 54.6074 0.56966 54.4374 0.583863C54.2673 0.598067 53.8849 0.705831 53.5872 0.823476C52.4391 1.27769 51.9562 1.44813 51.7479 1.47407C51.6288 1.48858 51.3698 1.66211 51.1719 1.85973C50.703 2.32815 51.065 2.89013 51.8356 2.89013C52.4913 2.89013 53.143 4.13203 52.8657 4.85334C52.6345 5.45577 54.9805 5.98964 57.5884 5.9285C58.7459 5.90133 59.2059 5.83062 58.6108 5.77103C58.0157 5.71174 57.0419 5.56971 56.4468 5.45577L55.3648 5.24826L56.9105 5.03459C58.7044 4.78665 60.2316 4.9889 59.954 5.43786C59.848 5.60923 59.9302 5.69291 60.1367 5.62436C60.8734 5.37888 60.4678 4.89317 59.3172 4.64183C58.0553 4.3664 54.808 4.53036 53.8457 4.91818C53.42 5.08955 53.3189 5.05158 53.4858 4.7817C53.6135 4.57575 53.5603 4.21756 53.3681 3.98598C52.6892 3.16895 57.1312 2.59772 59.6399 3.17914C60.9457 3.48206 61.441 3.8285 60.8632 4.03507C60.5701 4.14006 60.5695 4.2997 60.8604 4.76472C61.065 5.09233 61.3553 5.36035 61.5053 5.36035C61.6552 5.36035 61.6277 5.17941 61.4437 4.95832C60.9031 4.30742 61.3791 3.26406 62.3755 2.9173C63.6111 2.48686 63.4256 1.61827 62.0089 1.20111C61.415 1.02603 60.7556 0.770671 60.5429 0.633264C60.3305 0.495858 60.0112 0.473008 59.8337 0.582624C59.6563 0.69224 59.3147 0.619062 59.0745 0.4199C58.8343 0.220738 58.4865 0.151263 58.3016 0.265511C58.1168 0.379759 57.7931 0.330047 57.5823 0.155279C57.3603 -0.028753 57.0199 -0.0519141 56.7736 0.100314ZM56.0888 0.803404C56.3942 1.10848 56.5293 1.09458 56.7519 0.735162C56.9056 0.486595 57.1393 0.391182 57.2713 0.522721C57.403 0.65457 57.3232 0.878125 57.0938 1.01985C56.8644 1.16127 56.7664 1.42219 56.8759 1.59912C56.9856 1.77636 56.9324 2.00918 56.7584 2.11664C56.584 2.22409 56.3225 1.99065 56.1769 1.59758C56.0313 1.2045 55.7926 0.928148 55.6461 0.98342C55.4999 1.03869 55.3305 0.934324 55.2696 0.751836C55.119 0.30102 55.6171 0.332209 56.0888 0.803404ZM58.9663 0.883068C58.9663 1.04425 58.8167 1.22612 58.634 1.28695C58.4513 1.34778 58.3016 1.16622 58.3016 0.883068C58.3016 0.599918 58.4513 0.418357 58.634 0.479186C58.8167 0.540015 58.9663 0.721885 58.9663 0.883068ZM54.5919 1.19185C54.5919 1.44659 54.4358 1.65501 54.2451 1.65501C54.0194 1.65501 54.0463 1.83472 54.3224 2.16851C54.6859 2.60852 54.6804 2.65978 54.2828 2.52793C53.8512 2.38435 53.6296 1.48982 53.8942 0.960262C54.0995 0.550205 54.5919 0.713857 54.5919 1.19185ZM60.4656 1.39008C60.4656 1.56423 60.2944 1.64946 60.0854 1.57998C59.8761 1.5102 59.4634 1.74178 59.1682 2.09441C58.7264 2.62211 58.6296 2.6465 58.621 2.23304C58.6154 1.95669 58.9236 1.52039 59.3063 1.26379C60.0211 0.784568 60.4656 0.833045 60.4656 1.39008ZM58.1004 1.81928C58.0049 2.06847 57.8021 2.27257 57.6503 2.27257C57.3331 2.27257 57.2771 1.54601 57.5718 1.25175C57.9016 0.922283 58.2865 1.33543 58.1004 1.81928ZM53.3554 1.65501C53.3554 1.82484 53.1467 1.96379 52.8917 1.96379C52.6366 1.96379 52.428 1.82484 52.428 1.65501C52.428 1.48519 52.6366 1.34624 52.8917 1.34624C53.1467 1.34624 53.3554 1.48519 53.3554 1.65501ZM55.7565 2.02493C55.6022 2.48779 55.0662 2.35501 54.9558 1.82669C54.8872 1.49661 55.0111 1.40768 55.3555 1.53984C55.63 1.64513 55.8106 1.86344 55.7565 2.02493ZM62.3977 1.84522C63.0596 2.07835 63.1125 2.58135 62.475 2.58135C62.22 2.58135 62.0113 2.4424 62.0113 2.27257C62.0113 2.10274 61.7414 1.96379 61.4113 1.96379C61.0811 1.96379 60.7253 2.10274 60.6202 2.27257C60.3874 2.64866 59.8473 2.6817 59.8473 2.31981C59.8473 1.96997 61.1575 1.35581 61.5476 1.52255C61.7176 1.59511 62.1004 1.74024 62.3977 1.84522ZM52.1188 2.27257C52.1188 2.4424 51.9881 2.58135 51.8279 2.58135C51.6678 2.58135 51.4511 2.4424 51.346 2.27257C51.2409 2.10274 51.3719 1.96379 51.6369 1.96379C51.9018 1.96379 52.1188 2.10274 52.1188 2.27257ZM53.2135 2.60204C53.5461 3.13962 53.1674 3.25356 52.7433 2.74315C52.4994 2.44981 52.4759 2.27257 52.6811 2.27257C52.8617 2.27257 53.1016 2.42078 53.2135 2.60204ZM61.7022 2.54831C61.7022 2.69992 61.4935 2.90402 61.2385 3.0019C60.7673 3.18254 60.6053 2.85338 60.981 2.47853C61.2762 2.18334 61.7022 2.22471 61.7022 2.54831ZM58.9199 3.81646C58.9199 3.98629 59.0674 4.12524 59.2473 4.12524C59.4272 4.12524 59.4887 3.98629 59.3836 3.81646C59.2785 3.64663 59.1314 3.50768 59.0562 3.50768C58.9811 3.50768 58.9199 3.64663 58.9199 3.81646ZM52.9294 6.22586C52.8308 6.38519 52.3334 6.59886 51.8242 6.70076C51.1747 6.83045 50.8411 7.11483 50.7057 7.65427C50.5994 8.07699 50.3144 8.58709 50.072 8.7878C49.8102 9.00487 49.7109 9.40164 49.8268 9.76693C50.0068 10.3332 49.9174 10.3663 48.6747 10.1924C46.9342 9.9488 46 10.634 46.0869 12.0905C46.1583 13.2904 46.2866 13.4383 47.3067 13.4973C47.7429 13.5223 48.0954 13.6125 48.0898 13.6974C48.0623 14.1392 47.1914 14.9325 46.7339 14.9325C46.4448 14.9325 46.2928 15.0687 46.3957 15.2348C46.4986 15.4012 46.4424 15.7998 46.2702 16.1207C46.0983 16.4415 46.0572 16.8043 46.1787 16.9269C46.3002 17.0495 46.3997 17.4499 46.3997 17.8165C46.3997 18.1855 46.5725 18.4488 46.7861 18.4062C46.9988 18.3639 47.1726 18.5375 47.1726 18.7922C47.1726 19.047 47.3982 19.2554 47.674 19.2554C48.1074 19.2554 48.1179 19.1819 47.7513 18.715C47.5182 18.4177 47.2332 18.1033 47.1185 18.0162C46.6442 17.6565 46.6999 15.1039 47.1754 15.3975C47.3469 15.5034 47.7296 15.1653 48.0255 14.6459C48.3216 14.1266 48.7003 13.7462 48.8676 13.8008C49.2314 13.9194 49.9548 12.616 49.9548 11.8425C49.9548 10.5169 47.772 11.0783 47.1757 12.5574C46.9231 13.1833 46.8192 13.0684 46.7398 12.0763C46.7228 11.8642 46.5963 11.6076 46.4585 11.5063C45.9209 11.111 47.6548 10.4012 48.8169 10.5404C50.3376 10.7229 50.7082 11.5523 50.0813 13.3698C49.8355 14.0821 49.7149 14.7945 49.8129 14.9529C49.9109 15.1116 49.6386 15.2413 49.2073 15.2413C48.3192 15.2413 47.3058 16.4992 47.5927 17.2458C47.8545 17.9276 48.6775 17.8158 49.8238 16.9426C50.3787 16.5199 50.8906 16.2766 50.9614 16.4023C51.0322 16.5279 51.0486 16.4594 50.9979 16.2497C50.8699 15.7226 51.8836 14.0105 52.325 14.008C52.5232 14.0071 52.743 13.8338 52.8135 13.623C52.9043 13.3503 53.1031 13.4012 53.5019 13.7996C53.8543 14.1516 54.315 14.2964 54.7422 14.1893C55.2402 14.0642 55.5098 14.2025 55.7515 14.7074C56.4468 16.1574 56.4554 16.4764 55.8007 16.4764C55.4557 16.4764 55.2597 16.3374 55.3648 16.1676C55.4699 15.9978 55.4167 15.8588 55.2467 15.8588C54.5827 15.8588 54.5901 16.4955 55.2569 16.7419C55.9222 16.9877 55.8996 17.0226 54.8504 17.3684C53.6423 17.7668 52.5726 18.74 52.8502 19.1887C52.9461 19.3431 52.627 19.8498 52.1417 20.3142C51.6233 20.8101 51.1787 21.0284 51.064 20.8431C50.9311 20.6285 50.5716 20.6307 49.9415 20.8502C48.2883 21.4258 47.9123 23.2695 49.4485 23.2695C50.3042 23.2695 50.8031 24.127 50.1035 24.3953C49.4611 24.6414 48.0354 24.2412 48.2601 23.8781C48.3621 23.7132 48.3145 23.5783 48.1544 23.5783C47.6592 23.5783 47.5018 21.9152 47.9497 21.4162C48.5427 20.7557 49.067 19.2603 48.8364 18.8876C48.5581 18.438 48.0771 19.2906 48.266 19.8983C48.3495 20.1669 48.1377 20.6402 47.7952 20.9496C45.9141 22.6501 48.6292 26.1887 50.5428 24.5309C51.303 23.8722 50.8628 22.9607 49.7848 22.9607C49.3437 22.9607 49.0274 22.7813 49.0274 22.5306C49.0274 22.0023 49.7854 21.6799 50.4389 21.9306C50.7407 22.0461 51.3401 21.7228 52.031 21.0716C52.6406 20.4973 53.0617 20.2484 52.9668 20.5186C52.7383 21.1692 53.1495 21.7908 53.8624 21.8729C55.1945 22.026 56.4468 22.4417 56.4468 22.731C56.4468 22.9135 56.8929 22.9691 57.5288 22.8662C58.5004 22.7088 58.6108 22.7625 58.6108 23.3955C58.6108 23.783 58.8541 24.3125 59.1518 24.5719C59.7419 25.0867 62.5474 25.5047 62.7891 25.1141C62.8714 24.9811 63.4763 24.9443 64.1333 25.0323C65.1358 25.1666 65.4091 25.0762 65.8335 24.471C66.4642 23.5718 66.4704 23.1355 65.8607 22.5269C65.4814 22.148 65.4548 21.9133 65.7324 21.3952C65.925 21.0358 65.9986 20.4074 65.896 19.9986C65.7071 19.2467 66.1269 18.971 66.5121 19.5935C66.6305 19.7852 66.9576 19.4042 67.267 18.7141C67.5672 18.0443 68.0723 17.391 68.3898 17.2622C68.9429 17.0374 68.9413 17.0177 68.3487 16.7892C67.9876 16.6502 67.3125 16.7215 66.7257 16.9612C65.6073 17.4175 65.6904 17.5556 65.5831 15.069L65.529 13.8159L66.8444 14.2884C68.5107 14.8868 68.8001 14.6018 67.7688 13.3781C67.3227 12.8482 66.9576 12.1198 66.9576 11.7592C66.9576 11.262 66.871 11.1901 66.599 11.4618C66.3272 11.7332 66.4404 12.1211 67.0673 13.0675C67.5218 13.7536 67.7873 14.3094 67.6575 14.3026C67.5276 14.2958 66.6562 13.8792 65.721 13.3765C64.7859 12.8735 63.847 12.4623 63.6343 12.4623C63.4219 12.4623 63.2479 12.1877 63.2479 11.8524C63.2479 11.3297 63.3582 11.2843 64.0189 11.5353C64.4427 11.6962 65.1383 12.0562 65.5646 12.335C66.0369 12.6441 66.3393 12.7077 66.3393 12.4978C66.3393 12.3085 66.2246 12.1535 66.0843 12.1535C65.9439 12.1535 65.8397 11.6326 65.8524 10.9956C65.8685 10.1862 66.0849 9.66812 66.5712 9.27474C67.9969 8.12114 66.9888 5.97328 65.0255 5.98254C64.4727 5.98532 63.8167 6.11624 63.5675 6.27372C63.2739 6.45929 62.9567 6.43027 62.667 6.19189C62.3254 5.91029 62.1909 5.90936 62.0973 6.18726C62.02 6.41606 61.5937 6.48894 60.9457 6.38395C59.2485 6.10883 57.8574 8.05661 59.0467 9.04254C59.4087 9.34267 59.2686 9.60328 58.2191 10.5812C57.3872 11.3562 56.7572 11.7064 56.3745 11.6066C56.0551 11.523 55.8631 11.2731 55.9485 11.0514C56.0338 10.8297 55.8678 10.6016 55.5797 10.5444C55.2211 10.4734 55.1697 10.369 55.417 10.2134C55.6161 10.0887 55.9896 10.1971 56.2477 10.4546C56.5055 10.7124 56.7958 10.7949 56.8926 10.6383C56.9896 10.4818 56.9068 10.2996 56.7083 10.2335C56.4511 10.148 56.4391 9.95096 56.6666 9.54492C56.9269 9.08021 56.7983 8.8128 55.9596 8.07729C55.3527 7.54496 55.0037 6.99595 55.1051 6.73225C55.2195 6.43428 55.069 6.28669 54.6504 6.28669C54.306 6.28669 53.8182 6.20764 53.5665 6.1113C53.3149 6.01466 53.028 6.06622 52.9294 6.22586ZM54.4522 7.3705C54.3978 7.8664 54.5029 8.03561 54.7954 7.92352C55.0767 7.81576 55.1564 7.92012 55.0346 8.23693C54.8986 8.59079 55.0071 8.67138 55.46 8.55312C55.7945 8.46574 56.1537 8.53274 56.2582 8.70226C56.5534 9.17902 56.1346 9.97165 55.6795 9.79719C55.0952 9.57302 54.7805 10.2468 55.2214 10.7776C55.6347 11.2747 55.2962 11.3698 54.625 10.9452C54.3554 10.7748 54.2627 10.4012 54.3777 9.94633C54.5434 9.29049 54.5218 9.27258 54.1561 9.76044C53.6404 10.4484 53.1207 10.4527 52.9894 9.77032C52.9006 9.31086 52.794 9.33958 52.1936 9.98276C51.6276 10.5898 51.5005 10.63 51.5005 10.2017C51.5005 9.91329 51.7757 9.44178 52.1123 9.154C52.5247 8.80138 52.6107 8.56084 52.3763 8.41633C51.9683 8.16437 52.2567 7.21302 52.7408 7.21302C52.9238 7.21302 53.0509 7.38687 53.0231 7.599C52.9272 8.33636 53.0481 8.75692 53.3554 8.75692C53.8485 8.75692 53.7127 7.2121 53.2027 7.01664C52.4892 6.74306 52.9387 6.35184 53.7811 6.51271C54.3493 6.62109 54.5119 6.8289 54.4522 7.3705ZM66.3393 6.90424C67.1369 7.70089 67.1282 8.6439 66.3195 9.07619C65.8441 9.33032 65.5665 9.32198 65.2298 9.04284C64.835 8.71554 64.8403 8.59944 65.2721 8.123C65.7284 7.61938 65.7161 7.56194 65.1101 7.36988C64.7073 7.24205 64.1515 7.35969 63.6696 7.67526C62.5533 8.40583 62.3072 7.92229 63.3425 7.03239C64.3976 6.1252 65.5117 6.07765 66.3393 6.90424ZM61.7452 7.18647C62.1467 7.51161 62.3773 7.87535 62.258 7.99516C62.1384 8.11497 61.8085 7.98096 61.5247 7.6975C61.2409 7.41404 60.7939 7.22383 60.5308 7.27478C59.869 7.40323 59.6789 8.13936 60.308 8.13936C60.6292 8.13936 60.7813 8.34068 60.716 8.67972C60.5751 9.40998 59.8628 9.36243 59.3481 8.58832C58.9898 8.04919 58.9984 7.85621 59.4053 7.27601C59.992 6.43891 60.7847 6.40866 61.7452 7.18647ZM62.6296 6.90424C62.6296 7.07407 62.4905 7.21302 62.3205 7.21302C62.1504 7.21302 62.0113 7.07407 62.0113 6.90424C62.0113 6.73442 62.1504 6.59547 62.3205 6.59547C62.4905 6.59547 62.6296 6.73442 62.6296 6.90424ZM51.6533 7.52365C51.3447 7.86454 51.0251 8.07606 50.9432 7.99423C50.7354 7.78673 51.5064 6.90424 51.8953 6.90424C52.0709 6.90424 51.9621 7.18307 51.6533 7.52365ZM61.2511 7.85127C61.5838 8.38885 61.2051 8.50279 60.7809 7.99238C60.537 7.69904 60.5135 7.5218 60.7188 7.5218C60.8993 7.5218 61.1392 7.67002 61.2511 7.85127ZM64.7964 7.98157C64.5862 8.23446 64.2888 8.36384 64.1351 8.26904C63.7407 8.02542 64.1181 7.5218 64.695 7.5218C65.0882 7.5218 65.1071 7.60764 64.7964 7.98157ZM51.8001 8.37094C51.7837 8.75568 50.2374 9.75982 50.0111 9.53256C49.8952 9.41646 50.1286 9.0555 50.5301 8.73036C51.2854 8.11867 51.8168 7.9683 51.8001 8.37094ZM64.5973 9.08823C65.1918 9.55511 65.4119 10.0115 65.4119 10.7766C65.4119 11.5819 65.3043 11.7842 64.9482 11.6477C64.6931 11.5498 64.4845 11.2148 64.4845 10.9029C64.4845 10.311 63.3991 9.37447 62.7134 9.37447C62.4951 9.37447 62.0141 9.72185 61.6444 10.1464C61.0443 10.8359 60.1565 11.1953 60.1565 10.7485C60.1565 10.3249 61.1108 8.79675 61.4638 8.65471C62.377 8.28788 63.8356 8.48951 64.5973 9.08823ZM51.132 10.764C51.1095 11.3584 50.9908 11.8447 50.8683 11.8447C50.5515 11.8447 50.2742 10.6331 50.4726 10.1168C50.7858 9.30191 51.1725 9.68201 51.132 10.764ZM63.7017 15.1965C64.1926 15.29 64.2408 15.2289 63.9512 14.8806C63.4915 14.327 63.8136 13.8323 64.7936 13.5874C65.2187 13.4812 65.3868 13.476 65.167 13.5757C64.8684 13.7116 64.8551 13.8626 65.1142 14.1744C65.3507 14.4591 65.3633 14.7654 65.1534 15.14C64.9512 15.5006 64.9503 15.8829 65.1503 16.2565C65.674 17.2341 64.2619 18.2917 63.6825 17.3558C63.5617 17.1603 63.7274 16.8018 64.0507 16.5597C64.609 16.1413 64.5998 16.1241 63.8662 16.2204C63.1048 16.3204 63.0921 16.3689 63.0049 19.524C62.936 22.0171 63.0231 22.8888 63.3984 23.4609C63.9317 24.2743 65.1027 24.4608 65.1027 23.7327C65.1027 23.4779 64.8941 23.2695 64.639 23.2695C64.384 23.2695 64.1753 23.0515 64.1753 22.7847C64.1753 21.9785 65.5482 22.3691 65.6675 23.2093C65.8913 24.7859 64.0609 25.3961 63.0309 24.0881L62.4596 23.3627L61.9118 24.0881C61.6107 24.487 61.0688 24.8134 60.7074 24.8134C59.8167 24.8134 58.9199 23.9463 58.9199 23.0855C58.9199 22.224 58.4188 21.8618 57.8636 22.3219C57.4564 22.6593 56.4468 22.475 56.4468 22.0631C56.4468 21.6188 57.2147 21.108 57.8821 21.108C58.2636 21.108 58.7833 21.4042 59.0374 21.7661C59.2965 22.136 59.694 22.3493 59.9444 22.2536C60.1896 22.1594 60.5355 22.2277 60.7129 22.4049C61.1414 22.8329 60.8326 23.5783 60.2263 23.5783C59.9614 23.5783 59.8412 23.6749 59.9592 23.7932C60.4158 24.2489 61.1062 24.114 61.5492 23.4826C61.9232 22.949 62.0113 21.6046 62.0113 16.4334C62.0113 11.5967 62.1053 10.0118 62.3977 9.9136C62.6797 9.8188 62.8259 10.5009 62.9387 12.432C63.0745 14.7555 63.1681 15.0949 63.7017 15.1965ZM53.888 11.0626C54.5848 11.237 54.6491 11.325 54.2448 11.551C53.9533 11.7141 53.3239 11.7082 52.7034 11.5368C51.7729 11.2796 51.7191 11.2954 52.2242 11.6776C52.6104 11.9698 52.7278 12.314 52.5896 12.7485C52.4777 13.1005 52.2913 13.3991 52.1754 13.4124C52.0592 13.4253 51.721 13.4825 51.4233 13.5393C50.6492 13.6872 50.7428 12.9084 51.6947 11.2861C52.3358 10.1933 52.5631 10.0013 52.7727 10.3755C52.9189 10.6361 53.4206 10.9452 53.888 11.0626ZM59.8452 10.705C59.8439 10.9072 59.357 11.4035 58.7632 11.8073C58.1693 12.2112 57.6834 12.663 57.6834 12.8109C57.6834 12.9588 57.5442 13.0798 57.3742 13.0798C56.7565 13.0798 57.0898 12.3085 58.1974 11.1759C59.2782 10.0701 59.8498 9.90681 59.8452 10.705ZM64.1206 10.7112C64.1901 11.0694 64.073 11.1685 63.7342 11.0388C63.1626 10.8196 63.0658 9.87994 63.6343 10.0692C63.847 10.1396 64.0656 10.4286 64.1206 10.7112ZM49.51 12.4027C49.3047 13.0489 48.4091 13.5921 48.4091 13.0702C48.4091 12.9057 48.5482 12.771 48.7183 12.771C48.8883 12.771 49.0274 12.3959 49.0274 11.9373C49.0274 11.3312 49.1202 11.1963 49.3672 11.443C49.5542 11.6298 49.6185 12.0615 49.51 12.4027ZM61.7022 11.8447C61.7022 12.2415 61.496 12.4623 61.1259 12.4623C60.5469 12.4623 58.9199 13.8595 58.9199 14.3569C58.9199 14.5036 58.7063 14.6237 58.4454 14.6237C58.0494 14.6237 58.0321 14.5085 58.3415 13.929C58.6689 13.3151 58.6559 13.2802 58.2308 13.6304C57.9662 13.8484 57.5816 14.4323 57.3761 14.9282C57.0487 15.7177 57.0879 15.9499 57.6932 16.799C58.2135 17.5287 58.4475 17.6664 58.6398 17.3555C58.9793 16.8074 59.8235 17.8798 59.8374 18.8765C59.847 19.553 59.8198 19.5604 59.0801 19.0763C58.6578 18.7999 58.016 18.0947 57.6537 17.5089C57.2911 16.9232 56.9256 16.5128 56.8416 16.5968C56.6165 16.8216 57.8809 18.502 58.8899 19.3193C59.3839 19.7195 59.8461 20.4639 59.9524 21.0309C60.1803 22.2431 60.1021 22.2607 59.0711 21.2309C58.5236 20.6841 58.0593 20.4818 57.6169 20.5973C56.6629 20.8465 55.5126 19.8674 55.9485 19.1773C56.2032 18.7737 56.1602 18.5279 55.7648 18.133C55.2813 17.6503 55.298 17.5769 56.0205 17.0093C56.4567 16.6666 56.7201 16.2105 56.6249 15.9626C56.4298 15.4552 57.5801 13.5356 58.651 12.5817C60.2672 11.1419 61.7022 10.7955 61.7022 11.8447ZM48.7183 11.9247C48.7183 12.1387 48.44 12.4873 48.1 12.6994C47.4047 13.1332 47.3358 13.0026 47.8017 12.1331C48.1621 11.4603 48.7183 11.334 48.7183 11.9247ZM54.5919 12.9254C54.5919 13.5198 54.4528 14.0061 54.2828 14.0061C53.94 14.0061 53.854 12.3758 54.1799 12.0507C54.5357 11.6953 54.5919 11.8147 54.5919 12.9254ZM55.775 12.9057C55.8464 13.5118 55.7552 13.7245 55.4659 13.6282C55.2402 13.5532 55.0492 13.119 55.0411 12.6633C55.0223 11.5838 55.6436 11.7888 55.775 12.9057ZM56.8419 12.9785C57.0196 13.908 56.8332 14.6237 56.4137 14.6237C56.2619 14.6237 56.1376 14.4153 56.1376 14.1605C56.1376 13.9058 56.3046 13.6974 56.5086 13.6974C56.797 13.6974 56.797 13.6149 56.5086 13.3268C56.0839 12.9026 55.9976 11.7218 56.41 11.9762C56.5596 12.0689 56.7541 12.5197 56.8419 12.9785ZM53.6645 12.4623C53.6645 12.6321 53.5254 12.771 53.3554 12.771C53.1854 12.771 53.0462 12.6321 53.0462 12.4623C53.0462 12.2924 53.1854 12.1535 53.3554 12.1535C53.5254 12.1535 53.6645 12.2924 53.6645 12.4623ZM61.393 16.7466C61.393 18.933 61.4734 21.1911 61.5714 21.7642L61.7498 22.8063L60.9531 21.9399C60.1834 21.1028 60.1565 20.9401 60.1565 17.1026C60.1565 13.2302 60.2353 12.8927 61.1612 12.7954C61.2889 12.7821 61.393 14.5601 61.393 16.7466ZM64.1753 13.0798C64.1753 13.2496 64.0445 13.3886 63.8844 13.3886C63.7243 13.3886 63.5076 13.2496 63.4025 13.0798C63.2973 12.91 63.4284 12.771 63.6934 12.771C63.9583 12.771 64.1753 12.91 64.1753 13.0798ZM51.5005 14.3594C51.5005 14.4718 50.8996 15.2271 50.1647 16.0376C49.1715 17.1334 48.687 17.4567 48.2747 17.2986C47.7723 17.1063 47.7636 17.0217 48.1816 16.3955C48.4431 16.0036 48.9606 15.7044 49.3761 15.7044C49.9994 15.7044 50.1236 15.5318 50.2049 14.5552C50.2921 13.5028 50.3508 13.4374 50.9005 13.7804C51.2304 13.9864 51.5005 14.2467 51.5005 14.3594ZM52.7875 14.2837C52.2975 14.5863 52.7421 15.8076 53.6015 16.5208C54.1814 17.0019 54.2111 16.9917 54.1709 16.3288C54.1474 15.9437 53.9724 15.6887 53.7817 15.7615C53.309 15.9428 52.9371 14.8818 53.3779 14.6098C53.5718 14.49 53.6045 14.3143 53.4509 14.2195C53.2973 14.1247 52.9986 14.1534 52.7875 14.2837ZM59.6006 14.8939C59.4235 15.0032 59.2328 15.2965 59.1765 15.5457C59.1205 15.7946 58.8936 16.1923 58.6723 16.4294C58.3304 16.7963 58.2052 16.7743 57.8327 16.2825C57.2552 15.5198 57.4101 15.1106 58.3257 14.98C58.7375 14.9211 59.2031 14.6469 59.3604 14.3702C59.5809 13.983 59.6782 13.9626 59.7846 14.2813C59.8606 14.5088 59.7778 14.7846 59.6006 14.8939ZM51.8814 16.4764C51.8814 17.0708 51.9451 17.3141 52.0227 17.0167C52.1006 16.7194 52.1006 16.2334 52.0227 15.936C51.9451 15.6387 51.8814 15.882 51.8814 16.4764ZM59.8473 16.5381C59.8473 17.2563 59.7546 17.4336 59.5076 17.1869C59.3206 17.0001 59.2603 16.5554 59.3737 16.1988C59.669 15.2697 59.8473 15.3975 59.8473 16.5381ZM52.428 16.4764C52.428 16.6462 52.5754 16.7852 52.7553 16.7852C52.9353 16.7852 52.9968 16.6462 52.8917 16.4764C52.7866 16.3065 52.6394 16.1676 52.5643 16.1676C52.4892 16.1676 52.428 16.3065 52.428 16.4764ZM67.2046 18.0382C66.8203 18.5575 66.4549 18.8296 66.3925 18.6428C66.3105 18.3976 66.1665 18.3967 65.8731 18.64C65.5791 18.8836 65.4079 18.8814 65.2539 18.6323C65.0038 18.2281 64.9899 18.2435 66.1847 17.6102C67.6491 16.8339 67.9901 16.9772 67.2046 18.0382ZM50.8823 17.7115C50.8823 17.8813 51.0214 18.0203 51.1914 18.0203C51.3614 18.0203 51.5005 17.8813 51.5005 17.7115C51.5005 17.5417 51.3614 17.4027 51.1914 17.4027C51.0214 17.4027 50.8823 17.5417 50.8823 17.7115ZM51.9642 18.329C52.0694 18.4989 52.2165 18.6378 52.2916 18.6378C52.3667 18.6378 52.428 18.4989 52.428 18.329C52.428 18.1592 52.2805 18.0203 52.1006 18.0203C51.9207 18.0203 51.8591 18.1592 51.9642 18.329ZM55.4155 18.5041C55.5178 18.7703 55.4439 19.1455 55.2513 19.3378C54.7465 19.8421 54.817 20.0878 55.5194 20.2713C56.1849 20.4451 56.3033 20.9858 55.8365 21.7231C55.6044 22.09 55.4668 22.1054 55.1614 21.8003C54.9502 21.5894 54.4414 21.4168 54.0302 21.4168C53.4259 21.4168 53.3195 21.2989 53.4738 20.7993C53.5789 20.4596 53.7502 19.9038 53.8553 19.5642C53.9749 19.1763 53.9032 18.9466 53.6627 18.9466C53.3588 18.9466 53.3594 18.8509 53.6645 18.4834C54.1678 17.8779 55.1796 17.89 55.4155 18.5041ZM64.8106 18.6548C65.6759 19.5191 65.5634 21.8167 64.6467 21.9905C64.311 22.0541 63.8631 22.3333 63.6519 22.6109C63.3048 23.0663 63.2667 23.0672 63.2578 22.6226C63.2522 22.3518 63.5261 21.8785 63.8662 21.5712C64.5852 20.9212 64.7021 19.5642 64.039 19.5642C63.4664 19.5642 63.1453 19.0417 63.3654 18.4686C63.6037 17.8486 64.0628 17.9079 64.8106 18.6548ZM51.346 18.9466C51.4511 19.1164 51.5982 19.2554 51.6734 19.2554C51.7485 19.2554 51.8097 19.1164 51.8097 18.9466C51.8097 18.7768 51.6622 18.6378 51.4823 18.6378C51.3024 18.6378 51.2409 18.7768 51.346 18.9466ZM50.5731 19.2554C50.5731 19.4252 50.7206 19.5642 50.9005 19.5642C51.0804 19.5642 51.1419 19.4252 51.0368 19.2554C50.9317 19.0855 50.7846 18.9466 50.7094 18.9466C50.6343 18.9466 50.5731 19.0855 50.5731 19.2554ZM64.1753 20.1564C64.1753 20.6909 63.8 21.4168 63.5239 21.4168C63.2037 21.4168 63.1496 20.383 63.4541 20.0789C63.7524 19.7806 64.1753 19.8263 64.1753 20.1564ZM64.3299 23.5783C64.435 23.7481 64.3818 23.8871 64.2118 23.8871C64.0418 23.8871 63.8167 23.7481 63.7116 23.5783C63.6065 23.4084 63.6597 23.2695 63.8297 23.2695C63.9997 23.2695 64.2248 23.4084 64.3299 23.5783ZM48.3764 32.3013C47.9726 33.3628 47.5945 34.3352 47.5364 34.4627C47.478 34.5902 49.3199 34.6943 51.6295 34.6943C53.9387 34.6943 55.8285 34.7999 55.8285 34.9287C55.8285 35.0574 54.4946 37.8713 52.8638 41.1814C51.2334 44.4915 49.4772 48.103 48.9609 49.2069C48.4447 50.3108 47.4817 52.291 46.8211 53.607L45.6201 56H53.3186H61.0171L61.4521 54.2245L61.8867 52.449L64.1901 52.4129L66.4939 52.3771L66.9876 50.5602L67.4813 48.7437L69.4607 48.8533C70.5495 48.9135 71.4939 49.0136 71.5594 49.0756C71.6253 49.1374 71.8442 49.922 72.0457 50.8187L72.4127 52.449L74.9405 52.5386C76.3307 52.588 77.4684 52.5445 77.4684 52.4419C77.4684 52.2385 75.8451 46.0913 74.3717 40.7155C73.8598 38.8474 73.299 36.6936 73.1259 35.9294C72.9527 35.1652 72.7113 34.3827 72.5895 34.1907C72.4674 33.9986 71.0945 33.742 69.5389 33.6201L66.71 33.3983L66.1748 35.2044C65.8805 36.1974 65.5355 37.427 65.4085 37.9365C65.2814 38.4459 64.4832 41.3639 63.6343 44.4208C62.7857 47.4777 62.0011 50.3611 61.8908 50.828L61.6904 51.6771H57.8064C55.6699 51.6771 53.9734 51.573 54.0358 51.4455C54.0982 51.318 54.6494 50.1718 55.2609 48.8981C55.8727 47.6244 58.1285 42.997 60.2743 38.6148C62.4197 34.2327 64.1753 30.5851 64.1753 30.5094C64.1753 30.4335 60.7856 30.3714 56.6428 30.3714H49.1103L48.3764 32.3013ZM111.323 33.5114C110.409 34.2296 110.318 35.3183 111.112 36.0359C111.872 36.723 112.886 36.6804 113.638 35.9294C114.375 35.1936 114.41 34.7431 113.802 33.8751C113.144 32.9373 112.225 32.8024 111.323 33.5114ZM8.3754 33.8887C2.73698 35.6595 -0.538058 42.3313 1.28247 48.3377C1.97618 50.6266 3.93614 52.9196 6.16133 54.0457C8.38993 55.1737 11.46 55.1799 13.803 54.0612C14.7285 53.6193 15.6943 53.0759 15.9493 52.8532C16.9738 51.9602 18.7313 49.7991 18.7276 49.4375C18.7239 49.0868 14.7486 46.2213 14.6154 46.4736C14.5839 46.5335 14.28 47.1337 13.9399 47.8078C13.2407 49.1939 11.5936 50.442 10.463 50.442C9.13248 50.442 7.7327 49.5434 6.95768 48.1922C6.3394 47.1143 6.21141 46.4671 6.21141 44.4208C6.21141 42.3616 6.33785 41.7298 6.97252 40.6231C8.91021 37.2429 12.2848 37.289 14.2704 40.7226C14.5737 41.2469 14.765 41.1583 16.589 39.6489C17.6824 38.7442 18.6172 37.9031 18.6661 37.7802C18.7152 37.6573 17.977 36.8465 17.0258 35.9779C14.4831 33.6568 11.4479 32.9238 8.3754 33.8887ZM40.0484 33.575C39.9711 33.6516 39.9773 36.0887 40.0623 38.9909C40.1473 41.8932 40.1368 44.2674 40.0388 44.267C39.9408 44.2667 38.7197 41.9043 37.3249 39.0172L34.7893 33.768L32.8661 33.7723C31.8083 33.7744 30.6298 33.8603 30.2471 33.9625L29.5515 34.1487V43.5664V52.9842L30.2471 52.798C30.6298 52.6958 31.7638 52.6099 32.7669 52.6078L34.5915 52.6034L34.4165 47.1998C34.3204 44.2278 34.3343 41.798 34.4471 41.8002C34.5599 41.8024 35.8555 44.1991 37.3258 47.1266L39.9993 52.449L41.5209 52.4809C42.3577 52.4985 43.487 52.4475 44.0302 52.3681L45.0176 52.2233L44.9356 42.9183L44.854 33.6136L42.5215 33.5246C41.2386 33.4755 40.1257 33.4981 40.0484 33.575ZM113.461 33.9443C114.065 34.5473 114.065 34.6971 113.466 35.5518C112.813 36.4821 111.56 36.4571 111.126 35.5051C110.415 33.9461 112.241 32.7255 113.461 33.9443ZM111.758 33.8226C111.46 35.0059 111.82 36.1628 112.198 35.2347C112.316 34.9438 112.439 34.9626 112.698 35.3119C112.974 35.6827 113.025 35.5907 112.954 34.8515C112.897 34.262 112.669 33.8905 112.324 33.8251C112.027 33.7689 111.772 33.7677 111.758 33.8226ZM21.6972 34.3046L20.4891 34.4287L20.6925 41.4044C20.8041 45.2412 20.8956 49.4693 20.8956 50.8008V53.221L22.2094 53.2176C22.9322 53.2157 24.0451 53.1281 24.6826 53.0228L25.8419 52.8313V43.454V34.0767L24.3734 34.1286C23.5657 34.1573 22.3615 34.2364 21.6972 34.3046ZM79.3232 43.1857C79.3232 48.1956 79.2883 52.3987 79.2459 52.5262C79.2036 52.6538 80.2435 52.7983 81.5574 52.848L83.9461 52.9378L84.0305 47.4444L84.1149 41.9506L84.7777 43.3401C90.0999 54.4953 89.3403 53.5177 92.6935 53.5254L94.4711 53.5298V44.112V34.6943L93.621 34.6915C93.1535 34.6903 92.0196 34.5989 91.1018 34.4887L89.4327 34.2886L89.6556 39.8178C89.7864 43.0634 89.7644 45.2196 89.6024 45.0384C89.451 44.8685 88.2345 42.3329 86.8993 39.4032L84.4719 34.0767H81.8977H79.3232V43.1857ZM112.71 34.3855C112.71 34.5553 112.571 34.6943 112.401 34.6943C112.231 34.6943 112.092 34.5553 112.092 34.3855C112.092 34.2157 112.231 34.0767 112.401 34.0767C112.571 34.0767 112.71 34.2157 112.71 34.3855ZM102.045 35.3659C99.2275 36.4346 97.3696 38.555 96.4301 41.774C95.1197 46.2642 97.4271 51.7049 101.606 53.9766C105.04 55.8434 109.539 54.9066 111.887 51.8355C115.63 46.9383 113.772 38.8119 108.272 36.0279C106.476 35.1192 103.523 34.8051 102.045 35.3659ZM106.8 40.0633C107.938 41.0709 108.677 42.9773 108.685 44.9226C108.695 47.5145 108.401 48.5257 107.298 49.6941C106.503 50.5355 106.062 50.7508 105.129 50.7508C104.17 50.7508 103.751 50.5328 102.81 49.5444C101.568 48.241 101.201 47.0343 101.23 44.3621C101.277 40.1859 104.302 37.8509 106.8 40.0633ZM70.3152 42.7997L70.9093 45.5015H69.5309C68.362 45.5015 68.1771 45.4194 68.3156 44.9612C68.4442 44.5354 69.3441 40.328 69.4548 39.6347C69.5055 39.3179 69.7377 40.172 70.3152 42.7997Z" fill="#84858F"/>
</svg>
