<svg width="137" height="31" viewBox="0 0 137 31" fill="none" xmlns="http://www.w3.org/2000/svg">
<path fill-rule="evenodd" clip-rule="evenodd" d="M80.9834 0.560369C73.1386 1.23842 66.5862 5.99985 64.8648 12.273C63.9151 15.7341 64.4513 19.4696 66.3423 22.5658C66.6491 23.068 66.9664 23.5567 67.0475 23.6516C67.1785 23.8052 67.563 23.5433 70.4805 21.3135C72.2874 19.9325 74.2491 18.435 74.8397 17.9859L75.9135 17.1693L75.4248 16.3893C73.9934 14.1052 73.7439 11.6979 74.6873 9.27286C75.2549 7.81378 76.1748 6.63989 77.6676 5.46949C81.6398 2.35524 87.7368 2.1384 92.0586 4.95768C92.758 5.4138 93.6927 6.20771 94.0689 6.66493C94.1249 6.73279 96.0564 5.24407 96.0564 5.1331C96.0564 4.96017 94.284 3.7289 93.0847 3.06861C90.6458 1.72578 88.1558 0.952832 85.2621 0.6401C84.0077 0.50449 82.0509 0.468067 80.9834 0.560369ZM51.5668 0.703364C46.8556 0.941954 41.657 1.62679 38.1663 2.4686L37.0408 2.74002L37.0092 7.20697L36.9775 11.6739L38.0424 10.9634C40.3028 9.45537 42.9348 8.21063 45.9241 7.23631C46.8655 6.92947 47.6996 6.6784 47.7779 6.6784C47.8857 6.6784 47.9201 9.56434 47.9201 18.6029V30.5275H51.6276H55.335V17.8524V5.17731L55.6085 5.08221C56.2738 4.85081 60.8254 4.40825 65.3553 4.13464C66.7546 4.05012 67.9229 3.96191 67.9514 3.93865C67.9797 3.9153 67.9635 3.24963 67.9154 2.45912L67.8279 1.02198L65.9879 0.902339C61.168 0.588909 55.3991 0.509278 51.5668 0.703364ZM30.4768 0.855241C30.2762 0.874201 29.5104 0.93906 28.775 0.999431C18.967 1.80491 11.1765 5.48785 6.31417 11.6179C2.68802 16.1893 0.630925 22.0547 0.425981 28.407L0.357422 30.5275H5.40237H10.4473L10.5313 28.6066C10.6648 25.5587 10.9677 22.9633 11.4689 20.5737L11.5997 19.9501H19.063H26.5262V25.2388V30.5275H30.2944H34.0627V15.6592V0.790977L32.4521 0.805945C31.5662 0.814127 30.6773 0.836382 30.4768 0.855241ZM104.595 15.5844L104.626 30.3778L105.842 30.5028C106.51 30.5716 108.917 30.6551 111.19 30.6885C115.629 30.7538 117.835 30.648 120.914 30.2223C127.914 29.2544 132.789 26.9447 135.152 23.4773C135.621 22.7879 136.361 21.1813 136.431 20.7001L136.474 20.4022L134.928 20.2311C133.491 20.0719 129.656 19.7447 127.532 19.6L126.614 19.5374L125.801 20.8664C124.829 22.4567 123.79 23.6698 122.416 24.8171C119.708 27.0792 116.761 28.2263 112.983 28.488L111.98 28.5575V14.9736C111.98 7.50244 111.962 1.3897 111.941 1.3897C111.919 1.3897 111.315 1.32224 110.6 1.23972C109.058 1.0621 105.694 0.790977 105.032 0.790977H104.564L104.595 15.5844ZM26.5262 10.0712V16.8567H19.5367C13.7228 16.8567 12.5472 16.8338 12.5472 16.7209C12.5472 16.6462 12.7433 16.0989 12.983 15.5047C15.4667 9.3468 19.6358 5.35164 25.4322 3.57483C25.9336 3.42116 26.3848 3.29313 26.435 3.29054C26.4852 3.28785 26.5262 6.33913 26.5262 10.0712ZM94.7075 10.4808C92.5412 12.1325 90.5945 13.6253 90.3815 13.7982L89.9943 14.1125L90.5879 15.0988C92.165 17.719 92.1423 20.7026 90.525 23.3428C89.7807 24.558 88.3067 25.9291 86.8763 26.737C84.837 27.8888 81.8359 28.4971 79.4686 28.2386C76.7015 27.9362 74.2748 26.9066 72.5087 25.2854C72.1222 24.9305 71.7499 24.6401 71.6813 24.6401C71.6128 24.64 71.1512 24.9751 70.6556 25.3847L69.7544 26.1295L69.9901 26.3442C70.1197 26.4622 70.6359 26.8396 71.1374 27.1827C73.7441 28.9665 76.673 30.0838 79.9502 30.5446C81.9859 30.8308 85.2903 30.7633 87.1845 30.3967C92.1789 29.4302 96.4491 26.8298 99.0134 23.1931C101.662 19.4372 102.222 14.8592 100.547 10.6525C100.178 9.72539 99.0553 7.7562 98.7943 7.57848C98.6863 7.50484 97.5863 8.28587 94.7075 10.4808Z" fill="#84858F"/>
</svg>
